<svg width="249" height="29" viewBox="0 0 249 29" fill="none" xmlns="http://www.w3.org/2000/svg">
<path d="M9.25115 28.7143V14.4341H13.367L13.9124 9.51305H9.25115L9.25814 7.05002C9.25814 5.76654 9.38547 5.07882 11.3102 5.07882H13.8833V0.157227H9.76686C4.82239 0.157227 3.08206 2.54446 3.08206 6.55903V9.5136H0V14.4346H3.08206V28.7143H9.25115Z" fill="white"/>
<path fill-rule="evenodd" clip-rule="evenodd" d="M78.8467 0.157227C75.1318 0.157227 74.6656 0.173962 73.2066 0.242372C71.7504 0.311076 70.7564 0.548602 69.8867 0.897112C68.987 1.25707 68.2239 1.73858 67.4636 2.52222C66.7027 3.30555 66.2353 4.09183 65.8848 5.01845C65.5457 5.91482 65.3149 6.93921 65.2493 8.43895C65.1841 9.94221 65.167 10.4228 65.167 14.2503C65.167 18.0777 65.1835 18.5566 65.2496 20.0598C65.3166 21.5602 65.5471 22.5843 65.8851 23.4803C66.2348 24.4072 66.7021 25.1935 67.4627 25.9769C68.2227 26.7608 68.9859 27.2435 69.885 27.6034C70.7552 27.9519 71.7495 28.1895 73.2054 28.2582C74.6645 28.3266 75.1304 28.3433 78.845 28.3433C82.5601 28.3433 83.0249 28.3266 84.4839 28.2582C85.9401 28.1895 86.9353 27.9519 87.8056 27.6034C88.7049 27.2435 89.4669 26.7608 90.2269 25.9769C90.9878 25.1935 91.4552 24.4072 91.8057 23.4806C92.1419 22.5843 92.3728 21.5599 92.4412 20.0601C92.5067 18.5569 92.5238 18.0777 92.5238 14.2503C92.5238 10.4228 92.5067 9.9425 92.4412 8.43924C92.3728 6.93892 92.1419 5.91482 91.8057 5.01874C91.4552 4.09183 90.9878 3.30555 90.2269 2.52222C89.4661 1.73829 88.7052 1.25678 87.8047 0.897112C86.9327 0.548602 85.9381 0.311076 84.482 0.242372C83.0229 0.173962 82.5584 0.157227 78.8424 0.157227H78.8467ZM78.3903 2.6966H78.3904L78.8463 2.69674C82.4985 2.69674 82.9314 2.71025 84.3736 2.77778C85.7073 2.84061 86.4311 3.07021 86.9133 3.26311C87.5516 3.51854 88.0067 3.82389 88.4851 4.31715C88.9639 4.81041 89.2603 5.28017 89.5088 5.93785C89.696 6.43404 89.9191 7.1798 89.9798 8.55387C90.0454 10.0395 90.0596 10.4858 90.0596 14.2469C90.0596 18.008 90.0454 18.4542 89.9798 19.9399C89.9188 21.3139 89.696 22.0597 89.5088 22.5559C89.2608 23.2136 88.9639 23.6819 88.4851 24.1748C88.0064 24.6681 87.5519 24.9734 86.9133 25.2289C86.4317 25.4227 85.7073 25.6517 84.3736 25.7145C82.9317 25.782 82.4985 25.7967 78.8463 25.7967C75.1939 25.7967 74.761 25.782 73.3191 25.7145C71.9854 25.6511 71.2616 25.4215 70.7791 25.2286C70.1408 24.9732 69.6848 24.6678 69.2061 24.1745C68.7273 23.6813 68.431 23.2127 68.1825 22.5547C67.9953 22.0585 67.7721 21.3128 67.7114 19.9387C67.6459 18.4531 67.6328 18.0068 67.6328 14.2434C67.6328 10.4799 67.6459 10.036 67.7114 8.55035C67.7724 7.17628 67.9953 6.43052 68.1825 5.93374C68.4304 5.27606 68.7273 4.80629 69.2061 4.31304C69.6848 3.81978 70.1408 3.51443 70.7791 3.25841C71.2613 3.06463 71.9854 2.83562 73.3191 2.77249C74.5809 2.71377 75.0699 2.69615 77.6193 2.69322V2.69674C77.8574 2.69636 78.1136 2.69648 78.3901 2.6966H78.3902H78.3903ZM84.5076 6.72753C84.5076 5.79357 85.2428 5.03695 86.149 5.03695V5.03637C87.0552 5.03637 87.7904 5.79387 87.7904 6.72753C87.7904 7.6612 87.0552 8.4187 86.149 8.4187C85.2428 8.4187 84.5076 7.6612 84.5076 6.72753ZM78.8471 7.01255C74.968 7.0127 71.8229 10.2532 71.8229 14.2499C71.8229 18.2468 74.9681 21.4858 78.8474 21.4858C82.7267 21.4858 85.8708 18.2468 85.8708 14.2499C85.8708 10.2531 82.7264 7.01255 78.8471 7.01255ZM83.4059 14.25C83.4059 11.6554 81.3643 9.55229 78.8463 9.55229C76.3281 9.55229 74.2868 11.6554 74.2868 14.25C74.2868 16.8443 76.3281 18.9477 78.8463 18.9477C81.3643 18.9477 83.4059 16.8443 83.4059 14.25Z" fill="white"/>
<path d="M231.051 25.0531C230.242 25.0531 230.38 24.725 230.101 23.8976L227.723 15.4876L246.028 3.81836" fill="#F5F4F4"/>
<path d="M230.651 25.053C231.35 25.053 231.659 24.7574 232.049 24.4067L235.777 21.0554L231.127 18.4629" fill="#C0C0C0"/>
<path d="M231.301 18.3002L241.613 26.1883C242.789 26.8605 243.639 26.5125 243.932 25.0571L248.129 4.57745C248.559 2.79355 247.472 1.98446 246.347 2.51361L221.7 12.3537C220.017 13.0524 220.027 14.0243 221.393 14.4573L227.718 16.5013L242.361 6.93623C243.052 6.50221 243.687 6.73555 243.166 7.21405" fill="white"/>
<path d="M156.337 9.46713L156.391 10.3856L155.492 10.2731C152.218 9.84201 149.358 8.37997 146.929 5.92449L145.742 4.70612L145.436 5.60584C144.789 7.61146 145.202 9.72955 146.552 11.1541C147.271 11.9414 147.109 12.0538 145.868 11.5852C145.436 11.4353 145.059 11.3228 145.023 11.379C144.897 11.5102 145.328 13.216 145.67 13.8907C146.138 14.828 147.091 15.7464 148.135 16.29L149.016 16.7211L147.973 16.7399C146.965 16.7399 146.929 16.7586 147.037 17.1522C147.397 18.3706 148.818 19.6639 150.401 20.2263L151.516 20.6199L150.545 21.2197C149.106 22.0819 147.415 22.5693 145.724 22.6068C144.915 22.6255 144.249 22.7005 144.249 22.7567C144.249 22.9442 146.444 23.9938 147.721 24.4062C151.552 25.6246 156.104 25.0997 159.521 23.0191C161.95 21.5383 164.378 18.5955 165.512 15.7464C166.123 14.2281 166.735 11.454 166.735 10.1232C166.735 9.26095 166.789 9.14848 167.796 8.11755C168.39 7.51774 168.947 6.8617 169.055 6.67426C169.235 6.31812 169.217 6.31812 168.3 6.63677C166.771 7.19909 166.555 7.12412 167.31 6.28063C167.868 5.68082 168.534 4.59366 168.534 4.27501C168.534 4.21878 168.264 4.3125 167.958 4.48119C167.634 4.66864 166.915 4.9498 166.375 5.11849L165.404 5.43714L164.522 4.81859C164.037 4.48119 163.353 4.10631 162.993 3.99385C162.076 3.73143 160.673 3.76892 159.845 4.06882C157.597 4.91231 156.176 7.08663 156.337 9.46713Z" fill="white"/>
</svg>
