<svg width="15" height="15" viewBox="0 0 15 15" fill="none" xmlns="http://www.w3.org/2000/svg">
<g clip-path="url(#clip0_117_6632)">
<path d="M14.1887 6.35314C13.2839 4.87964 11.2259 2.40747 7.61392 2.40747C4.00192 2.40747 1.94392 4.87964 1.03917 6.35314C0.759479 6.80552 0.611328 7.32686 0.611328 7.85872C0.611328 8.39058 0.759479 8.91193 1.03917 9.3643C1.94392 10.8378 4.00192 13.31 7.61392 13.31C11.2259 13.31 13.2839 10.8378 14.1887 9.3643C14.4684 8.91193 14.6165 8.39058 14.6165 7.85872C14.6165 7.32686 14.4684 6.80552 14.1887 6.35314ZM13.1941 8.75355C12.4171 10.0171 10.6583 12.1433 7.61392 12.1433C4.5695 12.1433 2.81075 10.0171 2.03375 8.75355C1.86758 8.48466 1.77957 8.17481 1.77957 7.85872C1.77957 7.54263 1.86758 7.23278 2.03375 6.96389C2.81075 5.70039 4.5695 3.57414 7.61392 3.57414C10.6583 3.57414 12.4171 5.69805 13.1941 6.96389C13.3603 7.23278 13.4483 7.54263 13.4483 7.85872C13.4483 8.17481 13.3603 8.48466 13.1941 8.75355Z" fill="white"/>
<path d="M7.61393 4.94202C7.03707 4.94202 6.47316 5.11308 5.99352 5.43356C5.51388 5.75405 5.14004 6.20957 4.91928 6.74252C4.69853 7.27547 4.64077 7.86192 4.75331 8.4277C4.86585 8.99347 5.14364 9.51318 5.55154 9.92108C5.95944 10.329 6.47914 10.6068 7.04492 10.7193C7.6107 10.8318 8.19714 10.7741 8.73009 10.5533C9.26304 10.3326 9.71857 9.95874 10.0391 9.4791C10.3595 8.99945 10.5306 8.43555 10.5306 7.85868C10.5297 7.08542 10.2221 6.34409 9.6753 5.79731C9.12852 5.25053 8.3872 4.94294 7.61393 4.94202ZM7.61393 9.60868C7.26782 9.60868 6.92947 9.50605 6.64169 9.31376C6.3539 9.12146 6.1296 8.84815 5.99714 8.52838C5.86469 8.20861 5.83003 7.85674 5.89756 7.51728C5.96508 7.17781 6.13175 6.86599 6.3765 6.62125C6.62124 6.3765 6.93306 6.20983 7.27253 6.14231C7.61199 6.07478 7.96386 6.10944 8.28363 6.24189C8.6034 6.37435 8.87671 6.59865 9.06901 6.88644C9.2613 7.17422 9.36393 7.51257 9.36393 7.85868C9.36393 8.32281 9.17956 8.76793 8.85137 9.09612C8.52318 9.42431 8.07806 9.60868 7.61393 9.60868Z" fill="white"/>
</g>
<defs>
<clipPath id="clip0_117_6632">
<rect width="14" height="14" fill="white" transform="translate(0.614258 0.858765)"/>
</clipPath>
</defs>
</svg>