<svg width="17" height="17" viewBox="0 0 17 17" fill="none" xmlns="http://www.w3.org/2000/svg">
<path fill-rule="evenodd" clip-rule="evenodd" d="M1.21742 5.87385L1.19573 5.81209C0.71281 4.42776 0.300781 2.53569 0.300781 1.3991C0.300781 0.906878 0.703509 0.50415 1.19573 0.50415C1.19573 0.50415 2.09068 0.50415 3.88058 0.50415C4.86912 0.50415 5.67048 1.30552 5.67048 2.29405V4.08395C5.67048 5.07249 4.86912 5.87385 3.88058 5.87385H3.13154C4.58452 9.46332 7.45072 12.3295 11.0402 13.7825V13.0335C11.0402 12.0449 11.8416 11.2436 12.8301 11.2436H14.62C15.6085 11.2436 16.4099 12.0449 16.4099 13.0335C16.4099 14.8234 16.4099 15.7183 16.4099 15.7183C16.4099 16.121 15.9177 16.6133 15.5149 16.6133C13.9707 16.6133 12.4368 16.2055 11.0402 15.7183C6.46298 14.0788 2.83523 10.4511 1.21742 5.87385Z" fill="white"/>
</svg>
