<svg width="22" height="10" viewBox="0 0 22 10" fill="none" xmlns="http://www.w3.org/2000/svg">
<path d="M17.3776 0.835358C15.3125 0.835358 13.5648 2.21223 12.9991 4.09546C12.6258 3.65581 12.0707 3.37571 11.4502 3.37571C10.8297 3.37571 10.2742 3.65581 9.90128 4.09546C9.33562 2.21223 7.5879 0.835358 5.52278 0.835358C3.00143 0.835358 0.950195 2.8866 0.950195 5.40795C0.950195 7.92929 3.00143 9.98053 5.52278 9.98053C8.04413 9.98053 10.0954 7.92929 10.0954 5.40795C10.0954 4.66074 10.703 4.05312 11.4502 4.05312C12.1971 4.05312 12.805 4.66078 12.805 5.40795C12.805 7.92929 14.8563 9.98053 17.3776 9.98053C19.899 9.98053 21.9502 7.92929 21.9502 5.40795C21.9502 2.8866 19.899 0.835358 17.3776 0.835358ZM5.52278 9.30308C3.37504 9.30308 1.62761 7.55569 1.62761 5.4079C1.62761 3.26012 3.375 1.51273 5.52278 1.51273C7.67057 1.51273 9.41796 3.26012 9.41796 5.4079C9.41796 7.55569 7.67053 9.30308 5.52278 9.30308ZM17.3776 9.30308C15.2299 9.30308 13.4824 7.55569 13.4824 5.4079C13.4824 3.26012 15.2298 1.51273 17.3776 1.51273C19.5254 1.51273 21.2728 3.26012 21.2728 5.4079C21.2728 7.55569 19.5254 9.30308 17.3776 9.30308Z" fill="#010002"/>
</svg>