<svg width="15" height="18" viewBox="0 0 15 18" fill="none" xmlns="http://www.w3.org/2000/svg">
<path d="M7.49473 0.0576172C11.4376 0.0576172 14.634 3.25397 14.634 7.19688C14.634 10.2134 12.5145 13.5009 8.32962 17.0951C7.84942 17.5075 7.14002 17.5075 6.65791 17.0934L6.38131 16.8537C2.38164 13.3541 0.355469 10.1462 0.355469 7.19688C0.355469 3.25397 3.55183 0.0576172 7.49473 0.0576172ZM7.49473 4.45101C5.97823 4.45101 4.74886 5.68038 4.74886 7.19688C4.74886 8.71338 5.97823 9.94275 7.49473 9.94275C9.01123 9.94275 10.2406 8.71338 10.2406 7.19688C10.2406 5.68038 9.01123 4.45101 7.49473 4.45101Z" fill="white"/>
</svg>
