<svg width="25" height="25" viewBox="0 0 25 25" fill="none" xmlns="http://www.w3.org/2000/svg">
<g clip-path="url(#clip0_117_6626)">
<path d="M23.8467 11.132H1.84668C1.29439 11.132 0.84668 11.5798 0.84668 12.1321C0.84668 12.6843 1.29439 13.1321 1.84668 13.1321H23.8467C24.399 13.1321 24.8467 12.6843 24.8467 12.1321C24.8467 11.5798 24.399 11.132 23.8467 11.132Z" fill="#374957"/>
<path d="M23.8467 4.13266H1.84668C1.29439 4.13266 0.84668 4.58037 0.84668 5.13266C0.84668 5.68494 1.29439 6.13266 1.84668 6.13266H23.8467C24.399 6.13266 24.8467 5.68494 24.8467 5.13266C24.8467 4.58037 24.399 4.13266 23.8467 4.13266Z" fill="#374957"/>
<path d="M23.8467 18.1324H1.84668C1.29439 18.1324 0.84668 18.5801 0.84668 19.1324C0.84668 19.6846 1.29439 20.1324 1.84668 20.1324H23.8467C24.399 20.1324 24.8467 19.6846 24.8467 19.1324C24.8467 18.5801 24.399 18.1324 23.8467 18.1324Z" fill="#374957"/>
</g>
<defs>
<clipPath id="clip0_117_6626">
<rect width="24" height="24" fill="white" transform="translate(0.84668 0.132355)"/>
</clipPath>
</defs>
</svg>