<svg width="16" height="16" viewBox="0 0 16 16" fill="none" xmlns="http://www.w3.org/2000/svg">
<g clip-path="url(#clip0_117_7000)">
<path d="M11.9268 1.53287H3.17676C2.34826 1.53386 1.55398 1.86342 0.968145 2.44925C0.382309 3.03509 0.0527502 3.82937 0.0517578 4.65787L0.0517578 12.1579C0.0527502 12.9864 0.382309 13.7806 0.968145 14.3665C1.55398 14.9523 2.34826 15.2819 3.17676 15.2829H11.9268C12.7553 15.2819 13.5495 14.9523 14.1354 14.3665C14.7212 13.7806 15.0508 12.9864 15.0518 12.1579V4.65787C15.0508 3.82937 14.7212 3.03509 14.1354 2.44925C13.5495 1.86342 12.7553 1.53386 11.9268 1.53287ZM3.17676 2.78287H11.9268C12.301 2.7836 12.6665 2.89631 12.9761 3.10649C13.2857 3.31668 13.5254 3.61471 13.6643 3.96224L8.87801 8.74912C8.52578 9.09994 8.04889 9.29691 7.55176 9.29691C7.05462 9.29691 6.57774 9.09994 6.22551 8.74912L1.43926 3.96224C1.5781 3.61471 1.81777 3.31668 2.12741 3.10649C2.43706 2.89631 2.80252 2.7836 3.17676 2.78287ZM11.9268 14.0329H3.17676C2.67948 14.0329 2.20256 13.8353 1.85093 13.4837C1.4993 13.1321 1.30176 12.6551 1.30176 12.1579V5.59537L5.34176 9.63287C5.9284 10.218 6.72317 10.5466 7.55176 10.5466C8.38035 10.5466 9.17512 10.218 9.76176 9.63287L13.8018 5.59537V12.1579C13.8018 12.6551 13.6042 13.1321 13.2526 13.4837C12.901 13.8353 12.424 14.0329 11.9268 14.0329Z" fill="#374957"/>
</g>
<defs>
<clipPath id="clip0_117_7000">
<rect width="15" height="15" fill="white" transform="translate(0.0517578 0.907959)"/>
</clipPath>
</defs>
</svg>