<svg width="16" height="16" viewBox="0 0 16 16" fill="none" xmlns="http://www.w3.org/2000/svg">
<g clip-path="url(#clip0_117_6590)">
<path d="M8.7783 1.53301C8.7783 1.36725 8.84415 1.20828 8.96136 1.09107C9.07857 0.973859 9.23754 0.908011 9.4033 0.908011C11.0603 0.909831 12.649 1.5689 13.8207 2.7406C14.9924 3.91231 15.6515 5.50097 15.6533 7.15801C15.6533 7.32377 15.5874 7.48274 15.4702 7.59995C15.353 7.71716 15.1941 7.78301 15.0283 7.78301C14.8625 7.78301 14.7036 7.71716 14.5864 7.59995C14.4691 7.48274 14.4033 7.32377 14.4033 7.15801C14.4018 5.83239 13.8745 4.56148 12.9372 3.62412C11.9998 2.68676 10.7289 2.1595 9.4033 2.15801C9.23754 2.15801 9.07857 2.09216 8.96136 1.97495C8.84415 1.85774 8.7783 1.69877 8.7783 1.53301ZM9.4033 4.65801C10.0663 4.65801 10.7022 4.9214 11.1711 5.39024C11.6399 5.85909 11.9033 6.49497 11.9033 7.15801C11.9033 7.32377 11.9691 7.48274 12.0864 7.59995C12.2036 7.71716 12.3625 7.78301 12.5283 7.78301C12.6941 7.78301 12.853 7.71716 12.9702 7.59995C13.0874 7.48274 13.1533 7.32377 13.1533 7.15801C13.1523 6.16375 12.7569 5.2105 12.0539 4.50746C11.3508 3.80441 10.3976 3.409 9.4033 3.40801C9.23754 3.40801 9.07857 3.47386 8.96136 3.59107C8.84415 3.70828 8.7783 3.86725 8.7783 4.03301C8.7783 4.19877 8.84415 4.35774 8.96136 4.47495C9.07857 4.59216 9.23754 4.65801 9.4033 4.65801ZM15.0864 11.3699C15.4486 11.7331 15.652 12.2251 15.652 12.738C15.652 13.2509 15.4486 13.7429 15.0864 14.1061L14.5177 14.7618C9.39893 19.6624 -3.05731 7.20926 1.76768 2.07426L2.48643 1.44926C2.85004 1.09718 3.33764 0.902417 3.84375 0.907095C4.34985 0.911774 4.83377 1.11552 5.19081 1.47426C5.21018 1.49364 6.3683 2.99801 6.3683 2.99801C6.71195 3.35903 6.90324 3.83859 6.90243 4.33701C6.90161 4.83543 6.70875 5.31437 6.36393 5.67426L5.64018 6.58426C6.04071 7.55746 6.62959 8.44192 7.373 9.18682C8.1164 9.93173 8.99967 10.5224 9.97205 10.9249L10.8877 10.1968C11.2476 9.85221 11.7265 9.65957 12.2247 9.65887C12.723 9.65817 13.2024 9.84947 13.5633 10.193C13.5633 10.193 15.067 11.3505 15.0864 11.3699ZM14.2264 12.2786C14.2264 12.2786 12.7308 11.128 12.7114 11.1086C12.5827 10.981 12.4087 10.9093 12.2274 10.9093C12.046 10.9093 11.8721 10.981 11.7433 11.1086C11.7264 11.1261 10.4658 12.1305 10.4658 12.1305C10.3808 12.1981 10.2797 12.2425 10.1725 12.2591C10.0652 12.2758 9.95538 12.2642 9.85392 12.2255C8.59421 11.7565 7.45001 11.0222 6.49883 10.0724C5.54764 9.12265 4.81168 7.97953 4.34081 6.72051C4.29906 6.61767 4.28544 6.50557 4.30137 6.39572C4.3173 6.28588 4.36219 6.18226 4.43143 6.09551C4.43143 6.09551 5.43581 4.83426 5.45268 4.81801C5.58035 4.68925 5.65198 4.51527 5.65198 4.33395C5.65198 4.15263 5.58035 3.97865 5.45268 3.84989C5.43331 3.83114 4.28268 2.33426 4.28268 2.33426C4.15199 2.21708 3.98143 2.15432 3.80596 2.15885C3.63049 2.16339 3.4634 2.23486 3.33893 2.35864L2.62018 2.98364C-0.906062 7.22364 9.8883 17.4193 13.6039 13.908L14.1733 13.2518C14.3067 13.1282 14.3869 12.9575 14.3968 12.7759C14.4067 12.5944 14.3456 12.416 14.2264 12.2786Z" fill="#374957"/>
</g>
<defs>
<clipPath id="clip0_117_6590">
<rect width="15" height="15" fill="white" transform="translate(0.65332 0.907959)"/>
</clipPath>
</defs>
</svg>