<svg width="26" height="26" viewBox="0 0 26 26" fill="none" xmlns="http://www.w3.org/2000/svg">
<path d="M23.9976 11.8032C23.9976 10.0191 22.6378 8.54943 20.8991 8.37897V3.37897C20.8991 2.58352 20.2514 1.93579 19.456 1.93579C18.6605 1.93579 18.0128 2.58352 18.0128 3.37897V3.61382C15.0317 6.26912 11.509 6.73882 8.66809 7.10625H5.31203C4.36127 7.10625 3.58854 7.87897 3.58854 8.82973V9.02291H2.259C1.72869 9.02291 1.29688 9.45473 1.29688 9.98503V13.4623C1.29688 13.9926 1.72869 14.4244 2.259 14.4244H3.58854V14.6176C3.58854 15.4964 4.25142 16.2123 5.09991 16.3184L6.28551 22.8259C6.47869 23.8941 7.39915 24.6631 8.47869 24.6631C9.18703 24.6631 9.83854 24.3373 10.2628 23.7729C10.687 23.2047 10.8196 22.4926 10.6226 21.8108L9.70597 18.6403C10.6416 18.5191 11.3688 17.7275 11.384 16.7615C13.581 17.1934 15.9257 17.9812 18.009 19.8373V20.2312C18.009 21.0267 18.6567 21.6744 19.4522 21.6744C20.2476 21.6744 20.8954 21.0267 20.8954 20.2312V15.2312C22.634 15.057 23.9976 13.5873 23.9976 11.8032ZM2.259 13.7388C2.10748 13.7388 1.98248 13.6138 1.98248 13.4623V9.98503C1.98248 9.83352 2.10748 9.70852 2.259 9.70852H3.58854V13.7388H2.259ZM4.27415 14.6214V14.0835V9.36761V8.82973C4.27415 8.26155 4.73627 7.79564 5.30824 7.79564H8.33854V15.6517H5.38778H5.30824C4.74006 15.6555 4.27415 15.1896 4.27415 14.6214ZM9.71354 23.3562C9.41809 23.7464 8.97112 23.9737 8.47869 23.9737C7.73248 23.9737 7.09233 23.4396 6.95975 22.7085L5.80066 16.3449H8.32339L8.9143 18.3903V18.3941L9.95975 22.004C10.0999 22.4737 10.009 22.9661 9.71354 23.3562ZM10.6946 16.7312C10.6946 17.3941 10.1681 17.9358 9.509 17.9623L9.05445 16.3941C9.58097 16.4623 10.1302 16.5419 10.6908 16.6365C10.6908 16.6669 10.6946 16.7009 10.6946 16.7312ZM11.0431 16.0002H11.0393C10.3348 15.8752 9.65672 15.7805 9.02794 15.6972V7.75397C11.6454 7.40928 15.0696 6.89034 18.009 4.51912V18.9282C15.7779 17.129 13.2704 16.3979 11.0431 16.0002ZM20.2098 20.2312C20.2098 20.6479 19.8726 20.985 19.456 20.985C19.0393 20.985 18.7022 20.6479 18.7022 20.2312V19.6782V3.77291V3.37897C18.7022 2.96231 19.0393 2.62519 19.456 2.62519C19.8726 2.62519 20.2098 2.96231 20.2098 3.37897V8.70473V14.9017V20.2312ZM20.8954 14.5381V9.07215C22.2514 9.24261 23.3044 10.4017 23.3044 11.807C23.3044 13.2123 22.2552 14.3676 20.8954 14.5381Z" fill="white"/>
<path d="M5.33884 9.6214H7.28202C7.47141 9.6214 7.62672 9.4661 7.62672 9.2767C7.62672 9.08731 7.47141 8.93201 7.28202 8.93201H5.33884C5.14944 8.93201 4.99414 9.08731 4.99414 9.2767C4.99414 9.4661 5.14566 9.6214 5.33884 9.6214Z" fill="white"/>
<path d="M5.33884 11.254H7.28202C7.47141 11.254 7.62672 11.0987 7.62672 10.9093C7.62672 10.7199 7.47141 10.5646 7.28202 10.5646H5.33884C5.14944 10.5646 4.99414 10.7199 4.99414 10.9093C4.99414 11.0987 5.14566 11.254 5.33884 11.254Z" fill="white"/>
<path d="M5.33884 12.8865H7.28202C7.47141 12.8865 7.62672 12.7312 7.62672 12.5418C7.62672 12.3524 7.47141 12.1971 7.28202 12.1971H5.33884C5.14944 12.1971 4.99414 12.3524 4.99414 12.5418C4.99414 12.7312 5.14566 12.8865 5.33884 12.8865Z" fill="white"/>
<path d="M7.27811 14.5191C7.46751 14.5191 7.62281 14.3638 7.62281 14.1744C7.62281 13.985 7.46751 13.8297 7.27811 13.8297H5.33493C5.14554 13.8297 4.99023 13.985 4.99023 14.1744C4.99023 14.3638 5.14554 14.5191 5.33493 14.5191H7.27811Z" fill="white"/>
</svg>