<svg width="15" height="16" viewBox="0 0 15 16" fill="none" xmlns="http://www.w3.org/2000/svg">
<path d="M14.8228 15.1182L11.4364 11.7327C12.4758 10.5478 13.0492 9.04855 13.0492 7.45792C13.0492 5.72163 12.3728 4.08944 11.1449 2.86181C9.91692 1.63418 8.28431 0.957947 6.54757 0.957947C4.81083 0.957947 3.17821 1.63418 1.95026 2.86181C0.722309 4.08944 0.0458984 5.72163 0.0458984 7.45792C0.0458984 9.19421 0.722309 10.8264 1.95026 12.054C3.17821 13.2817 4.81083 13.9579 6.54757 13.9579C8.13862 13.9579 9.6383 13.3846 10.8235 12.3455L14.2099 15.731C14.2945 15.8156 14.4054 15.8579 14.5163 15.8579C14.6272 15.8579 14.7381 15.8156 14.8228 15.731C14.9921 15.5617 14.9921 15.2875 14.8228 15.1182ZM2.56318 11.4413C1.49904 10.3772 0.912788 8.96252 0.912788 7.45792C0.912788 5.95332 1.49904 4.53864 2.56318 3.47457C3.62753 2.41071 5.04258 1.82461 6.54757 1.82461C8.05256 1.82461 9.46761 2.41071 10.532 3.47457C11.5961 4.53864 12.1823 5.95332 12.1823 7.45792C12.1823 8.96252 11.5961 10.3772 10.532 11.4413C9.46761 12.5051 8.05256 13.0912 6.54757 13.0912C5.04258 13.0912 3.62753 12.5051 2.56318 11.4413Z" fill="black"/>
</svg>
