<svg width="11" height="11" viewBox="0 0 11 11" fill="none" xmlns="http://www.w3.org/2000/svg">
<path d="M8.68744 4.19625C8.64871 4.15719 8.60262 4.1262 8.55185 4.10504C8.50107 4.08389 8.44661 4.073 8.39161 4.073C8.3366 4.073 8.28214 4.08389 8.23137 4.10504C8.18059 4.1262 8.13451 4.15719 8.09577 4.19625L6.18744 6.10458C6.14871 6.14363 6.10262 6.17463 6.05185 6.19578C6.00107 6.21693 5.94661 6.22783 5.89161 6.22783C5.8366 6.22783 5.78214 6.21693 5.73137 6.19578C5.68059 6.17463 5.63451 6.14363 5.59577 6.10458L3.68744 4.19625C3.64871 4.15719 3.60262 4.1262 3.55185 4.10504C3.50107 4.08389 3.44661 4.073 3.39161 4.073C3.3366 4.073 3.28214 4.08389 3.23137 4.10504C3.18059 4.1262 3.13451 4.15719 3.09577 4.19625C3.01817 4.27431 2.97461 4.37992 2.97461 4.49C2.97461 4.60007 3.01817 4.70568 3.09577 4.78375L5.00827 6.69624C5.24265 6.93033 5.56036 7.06181 5.89161 7.06181C6.22286 7.06181 6.54056 6.93033 6.77494 6.69624L8.68744 4.78375C8.76504 4.70568 8.8086 4.60007 8.8086 4.49C8.8086 4.37992 8.76504 4.27431 8.68744 4.19625Z" fill="#374957"/>
</svg>