<svg width="25" height="20" viewBox="0 0 25 20" fill="none" xmlns="http://www.w3.org/2000/svg">
<path d="M24.927 9.58618C24.9184 8.75318 24.5445 7.95677 23.8862 7.36952L16.3188 0.561191C15.9883 0.266294 15.5412 0.100769 15.0752 0.100769C14.6092 0.100769 14.1621 0.266294 13.8316 0.561191C13.6663 0.708382 13.5351 0.8835 13.4455 1.07644C13.356 1.26939 13.3099 1.47634 13.3099 1.68536C13.3099 1.89437 13.356 2.10132 13.4455 2.29427C13.5351 2.48721 13.6663 2.66233 13.8316 2.80952L19.6351 8.00285H1.99541C1.52758 8.00285 1.07891 8.16966 0.7481 8.4666C0.417292 8.76353 0.231445 9.16625 0.231445 9.58618C0.231445 10.0061 0.417292 10.4088 0.7481 10.7058C1.07891 11.0027 1.52758 11.1695 1.99541 11.1695H19.6351L13.8316 16.3787C13.4995 16.6747 13.3119 17.0771 13.3103 17.4972C13.3086 17.9174 13.493 18.3209 13.8228 18.6191C14.1526 18.9172 14.6009 19.0856 15.069 19.0871C15.5371 19.0885 15.9867 18.923 16.3188 18.627L23.8862 11.8187C24.5488 11.2275 24.923 10.4247 24.927 9.58618Z" fill="white"/>
</svg>